<?xml version="1.0" encoding="utf-8" standalone="no"?>
<!DOCTYPE svg PUBLIC "-//W3C//DTD SVG 1.1//EN"
  "http://www.w3.org/Graphics/SVG/1.1/DTD/svg11.dtd">
<svg xmlns:xlink="http://www.w3.org/1999/xlink" width="572.4pt" height="347.04pt" viewBox="0 0 572.4 347.04" xmlns="http://www.w3.org/2000/svg" version="1.1">
 <metadata>
  <rdf:RDF xmlns:dc="http://purl.org/dc/elements/1.1/" xmlns:cc="http://creativecommons.org/ns#" xmlns:rdf="http://www.w3.org/1999/02/22-rdf-syntax-ns#">
   <cc:Work>
    <dc:type rdf:resource="http://purl.org/dc/dcmitype/StillImage"/>
    <dc:date>2025-11-27T18:49:14.768236</dc:date>
    <dc:format>image/svg+xml</dc:format>
    <dc:creator>
     <cc:Agent>
      <dc:title>Matplotlib v3.6.3, https://matplotlib.org/</dc:title>
     </cc:Agent>
    </dc:creator>
   </cc:Work>
  </rdf:RDF>
 </metadata>
 <defs>
  <style type="text/css">*{stroke-linejoin: round; stroke-linecap: butt}</style>
 </defs>
 <g id="figure_1">
  <g id="patch_1">
   <path d="M 0 347.04 
L 572.4 347.04 
L 572.4 -0 
L 0 -0 
z
" style="fill: #ffffff"/>
  </g>
  <g id="axes_1">
   <g id="patch_2">
    <path d="M 63 97.92 
L 185.76 97.92 
L 185.76 37.44 
L 63 37.44 
L 63 97.92 
z
" clip-path="url(#pe213045a33)" style="fill: none; stroke: #000000; stroke-linejoin: miter"/>
   </g>
   <g id="patch_3">
    <path d="M 230.4 97.92 
L 353.16 97.92 
L 353.16 37.44 
L 230.4 37.44 
L 230.4 97.92 
z
" clip-path="url(#pe213045a33)" style="fill: none; stroke: #000000; stroke-linejoin: miter"/>
   </g>
   <g id="patch_4">
    <path d="M 63 279.36 
L 185.76 279.36 
L 185.76 218.88 
L 63 218.88 
L 63 279.36 
z
" clip-path="url(#pe213045a33)" style="fill: none; stroke: #000000; stroke-linejoin: miter"/>
   </g>
   <g id="patch_5">
    <path d="M 397.8 279.36 
L 520.56 279.36 
L 520.56 218.88 
L 397.8 218.88 
L 397.8 279.36 
z
" clip-path="url(#pe213045a33)" style="fill: none; stroke: #000000; stroke-linejoin: miter"/>
   </g>
   <g id="patch_6">
    <path d="M 230.4 279.36 
L 353.16 279.36 
L 353.16 218.88 
L 230.4 218.88 
L 230.4 279.36 
z
" clip-path="url(#pe213045a33)" style="fill: none; stroke: #000000; stroke-linejoin: miter"/>
   </g>
   <g id="patch_7">
    <path d="M 397.8 97.92 
L 520.56 97.92 
L 520.56 37.44 
L 397.8 37.44 
L 397.8 97.92 
z
" clip-path="url(#pe213045a33)" style="fill: none; stroke: #000000; stroke-linejoin: miter"/>
   </g>
   <g id="patch_8">
    <path d="M 230.4 188.64 
L 353.16 188.64 
L 353.16 128.16 
L 230.4 128.16 
L 230.4 188.64 
z
" clip-path="url(#pe213045a33)" style="fill: none; stroke: #000000; stroke-linejoin: miter"/>
   </g>
   <g id="patch_9">
    <path d="M 369.9 188.64 
L 492.66 188.64 
L 492.66 128.16 
L 369.9 128.16 
L 369.9 188.64 
z
" clip-path="url(#pe213045a33)" style="fill: none; stroke: #000000; stroke-linejoin: miter"/>
   </g>
   <g id="text_1">
    <!-- dim_customer -->
    <g style="fill: #333333" transform="translate(84.985469 57.134437) scale(0.1 -0.1)">
     <defs>
      <path id="DejaVuSans-Bold-64" d="M 2919 2988 
L 2919 4863 
L 4044 4863 
L 4044 0 
L 2919 0 
L 2919 506 
Q 2688 197 2409 53 
Q 2131 -91 1766 -91 
Q 1119 -91 703 423 
Q 288 938 288 1747 
Q 288 2556 703 3070 
Q 1119 3584 1766 3584 
Q 2128 3584 2408 3439 
Q 2688 3294 2919 2988 
z
M 2181 722 
Q 2541 722 2730 984 
Q 2919 1247 2919 1747 
Q 2919 2247 2730 2509 
Q 2541 2772 2181 2772 
Q 1825 2772 1636 2509 
Q 1447 2247 1447 1747 
Q 1447 1247 1636 984 
Q 1825 722 2181 722 
z
" transform="scale(0.015625)"/>
      <path id="DejaVuSans-Bold-69" d="M 538 3500 
L 1656 3500 
L 1656 0 
L 538 0 
L 538 3500 
z
M 538 4863 
L 1656 4863 
L 1656 3950 
L 538 3950 
L 538 4863 
z
" transform="scale(0.015625)"/>
      <path id="DejaVuSans-Bold-6d" d="M 3781 2919 
Q 3994 3244 4286 3414 
Q 4578 3584 4928 3584 
Q 5531 3584 5847 3212 
Q 6163 2841 6163 2131 
L 6163 0 
L 5038 0 
L 5038 1825 
Q 5041 1866 5042 1909 
Q 5044 1953 5044 2034 
Q 5044 2406 4934 2573 
Q 4825 2741 4581 2741 
Q 4263 2741 4089 2478 
Q 3916 2216 3909 1719 
L 3909 0 
L 2784 0 
L 2784 1825 
Q 2784 2406 2684 2573 
Q 2584 2741 2328 2741 
Q 2006 2741 1831 2477 
Q 1656 2213 1656 1722 
L 1656 0 
L 531 0 
L 531 3500 
L 1656 3500 
L 1656 2988 
Q 1863 3284 2130 3434 
Q 2397 3584 2719 3584 
Q 3081 3584 3359 3409 
Q 3638 3234 3781 2919 
z
" transform="scale(0.015625)"/>
      <path id="DejaVuSans-Bold-5f" d="M 3200 -916 
L 3200 -1509 
L 0 -1509 
L 0 -916 
L 3200 -916 
z
" transform="scale(0.015625)"/>
      <path id="DejaVuSans-Bold-63" d="M 3366 3391 
L 3366 2478 
Q 3138 2634 2908 2709 
Q 2678 2784 2431 2784 
Q 1963 2784 1702 2511 
Q 1441 2238 1441 1747 
Q 1441 1256 1702 982 
Q 1963 709 2431 709 
Q 2694 709 2930 787 
Q 3166 866 3366 1019 
L 3366 103 
Q 3103 6 2833 -42 
Q 2563 -91 2291 -91 
Q 1344 -91 809 395 
Q 275 881 275 1747 
Q 275 2613 809 3098 
Q 1344 3584 2291 3584 
Q 2566 3584 2833 3536 
Q 3100 3488 3366 3391 
z
" transform="scale(0.015625)"/>
      <path id="DejaVuSans-Bold-75" d="M 500 1363 
L 500 3500 
L 1625 3500 
L 1625 3150 
Q 1625 2866 1622 2436 
Q 1619 2006 1619 1863 
Q 1619 1441 1641 1255 
Q 1663 1069 1716 984 
Q 1784 875 1895 815 
Q 2006 756 2150 756 
Q 2500 756 2700 1025 
Q 2900 1294 2900 1772 
L 2900 3500 
L 4019 3500 
L 4019 0 
L 2900 0 
L 2900 506 
Q 2647 200 2364 54 
Q 2081 -91 1741 -91 
Q 1134 -91 817 281 
Q 500 653 500 1363 
z
" transform="scale(0.015625)"/>
      <path id="DejaVuSans-Bold-73" d="M 3272 3391 
L 3272 2541 
Q 2913 2691 2578 2766 
Q 2244 2841 1947 2841 
Q 1628 2841 1473 2761 
Q 1319 2681 1319 2516 
Q 1319 2381 1436 2309 
Q 1553 2238 1856 2203 
L 2053 2175 
Q 2913 2066 3209 1816 
Q 3506 1566 3506 1031 
Q 3506 472 3093 190 
Q 2681 -91 1863 -91 
Q 1516 -91 1145 -36 
Q 775 19 384 128 
L 384 978 
Q 719 816 1070 734 
Q 1422 653 1784 653 
Q 2113 653 2278 743 
Q 2444 834 2444 1013 
Q 2444 1163 2330 1236 
Q 2216 1309 1875 1350 
L 1678 1375 
Q 931 1469 631 1722 
Q 331 1975 331 2491 
Q 331 3047 712 3315 
Q 1094 3584 1881 3584 
Q 2191 3584 2531 3537 
Q 2872 3491 3272 3391 
z
" transform="scale(0.015625)"/>
      <path id="DejaVuSans-Bold-74" d="M 1759 4494 
L 1759 3500 
L 2913 3500 
L 2913 2700 
L 1759 2700 
L 1759 1216 
Q 1759 972 1856 886 
Q 1953 800 2241 800 
L 2816 800 
L 2816 0 
L 1856 0 
Q 1194 0 917 276 
Q 641 553 641 1216 
L 641 2700 
L 84 2700 
L 84 3500 
L 641 3500 
L 641 4494 
L 1759 4494 
z
" transform="scale(0.015625)"/>
      <path id="DejaVuSans-Bold-6f" d="M 2203 2784 
Q 1831 2784 1636 2517 
Q 1441 2250 1441 1747 
Q 1441 1244 1636 976 
Q 1831 709 2203 709 
Q 2569 709 2762 976 
Q 2956 1244 2956 1747 
Q 2956 2250 2762 2517 
Q 2569 2784 2203 2784 
z
M 2203 3584 
Q 3106 3584 3614 3096 
Q 4122 2609 4122 1747 
Q 4122 884 3614 396 
Q 3106 -91 2203 -91 
Q 1297 -91 786 396 
Q 275 884 275 1747 
Q 275 2609 786 3096 
Q 1297 3584 2203 3584 
z
" transform="scale(0.015625)"/>
      <path id="DejaVuSans-Bold-65" d="M 4031 1759 
L 4031 1441 
L 1416 1441 
Q 1456 1047 1700 850 
Q 1944 653 2381 653 
Q 2734 653 3104 758 
Q 3475 863 3866 1075 
L 3866 213 
Q 3469 63 3072 -14 
Q 2675 -91 2278 -91 
Q 1328 -91 801 392 
Q 275 875 275 1747 
Q 275 2603 792 3093 
Q 1309 3584 2216 3584 
Q 3041 3584 3536 3087 
Q 4031 2591 4031 1759 
z
M 2881 2131 
Q 2881 2450 2695 2645 
Q 2509 2841 2209 2841 
Q 1884 2841 1681 2658 
Q 1478 2475 1428 2131 
L 2881 2131 
z
" transform="scale(0.015625)"/>
      <path id="DejaVuSans-Bold-72" d="M 3138 2547 
Q 2991 2616 2845 2648 
Q 2700 2681 2553 2681 
Q 2122 2681 1889 2404 
Q 1656 2128 1656 1613 
L 1656 0 
L 538 0 
L 538 3500 
L 1656 3500 
L 1656 2925 
Q 1872 3269 2151 3426 
Q 2431 3584 2822 3584 
Q 2878 3584 2943 3579 
Q 3009 3575 3134 3559 
L 3138 2547 
z
" transform="scale(0.015625)"/>
     </defs>
     <use xlink:href="#DejaVuSans-Bold-64"/>
     <use xlink:href="#DejaVuSans-Bold-69" x="71.582031"/>
     <use xlink:href="#DejaVuSans-Bold-6d" x="105.859375"/>
     <use xlink:href="#DejaVuSans-Bold-5f" x="210.058594"/>
     <use xlink:href="#DejaVuSans-Bold-63" x="260.058594"/>
     <use xlink:href="#DejaVuSans-Bold-75" x="319.335938"/>
     <use xlink:href="#DejaVuSans-Bold-73" x="390.527344"/>
     <use xlink:href="#DejaVuSans-Bold-74" x="450.048828"/>
     <use xlink:href="#DejaVuSans-Bold-6f" x="497.851562"/>
     <use xlink:href="#DejaVuSans-Bold-6d" x="566.552734"/>
     <use xlink:href="#DejaVuSans-Bold-65" x="670.751953"/>
     <use xlink:href="#DejaVuSans-Bold-72" x="738.574219"/>
    </g>
   </g>
   <g id="text_2">
    <!-- dim_loan -->
    <g style="fill: #333333" transform="translate(266.694062 57.134437) scale(0.1 -0.1)">
     <defs>
      <path id="DejaVuSans-Bold-6c" d="M 538 4863 
L 1656 4863 
L 1656 0 
L 538 0 
L 538 4863 
z
" transform="scale(0.015625)"/>
      <path id="DejaVuSans-Bold-61" d="M 2106 1575 
Q 1756 1575 1579 1456 
Q 1403 1338 1403 1106 
Q 1403 894 1545 773 
Q 1688 653 1941 653 
Q 2256 653 2472 879 
Q 2688 1106 2688 1447 
L 2688 1575 
L 2106 1575 
z
M 3816 1997 
L 3816 0 
L 2688 0 
L 2688 519 
Q 2463 200 2181 54 
Q 1900 -91 1497 -91 
Q 953 -91 614 226 
Q 275 544 275 1050 
Q 275 1666 698 1953 
Q 1122 2241 2028 2241 
L 2688 2241 
L 2688 2328 
Q 2688 2594 2478 2717 
Q 2269 2841 1825 2841 
Q 1466 2841 1156 2769 
Q 847 2697 581 2553 
L 581 3406 
Q 941 3494 1303 3539 
Q 1666 3584 2028 3584 
Q 2975 3584 3395 3211 
Q 3816 2838 3816 1997 
z
" transform="scale(0.015625)"/>
      <path id="DejaVuSans-Bold-6e" d="M 4056 2131 
L 4056 0 
L 2931 0 
L 2931 347 
L 2931 1631 
Q 2931 2084 2911 2256 
Q 2891 2428 2841 2509 
Q 2775 2619 2662 2680 
Q 2550 2741 2406 2741 
Q 2056 2741 1856 2470 
Q 1656 2200 1656 1722 
L 1656 0 
L 538 0 
L 538 3500 
L 1656 3500 
L 1656 2988 
Q 1909 3294 2193 3439 
Q 2478 3584 2822 3584 
Q 3428 3584 3742 3212 
Q 4056 2841 4056 2131 
z
" transform="scale(0.015625)"/>
     </defs>
     <use xlink:href="#DejaVuSans-Bold-64"/>
     <use xlink:href="#DejaVuSans-Bold-69" x="71.582031"/>
     <use xlink:href="#DejaVuSans-Bold-6d" x="105.859375"/>
     <use xlink:href="#DejaVuSans-Bold-5f" x="210.058594"/>
     <use xlink:href="#DejaVuSans-Bold-6c" x="260.058594"/>
     <use xlink:href="#DejaVuSans-Bold-6f" x="294.335938"/>
     <use xlink:href="#DejaVuSans-Bold-61" x="363.037109"/>
     <use xlink:href="#DejaVuSans-Bold-6e" x="430.517578"/>
    </g>
   </g>
   <g id="text_3">
    <!-- dim_date -->
    <g style="fill: #333333" transform="translate(98.6425 238.574437) scale(0.1 -0.1)">
     <use xlink:href="#DejaVuSans-Bold-64"/>
     <use xlink:href="#DejaVuSans-Bold-69" x="71.582031"/>
     <use xlink:href="#DejaVuSans-Bold-6d" x="105.859375"/>
     <use xlink:href="#DejaVuSans-Bold-5f" x="210.058594"/>
     <use xlink:href="#DejaVuSans-Bold-64" x="260.058594"/>
     <use xlink:href="#DejaVuSans-Bold-61" x="331.640625"/>
     <use xlink:href="#DejaVuSans-Bold-74" x="399.121094"/>
     <use xlink:href="#DejaVuSans-Bold-65" x="446.923828"/>
    </g>
   </g>
   <g id="text_4">
    <!-- dim_status -->
    <g style="fill: #333333" transform="translate(428.512031 238.574437) scale(0.1 -0.1)">
     <use xlink:href="#DejaVuSans-Bold-64"/>
     <use xlink:href="#DejaVuSans-Bold-69" x="71.582031"/>
     <use xlink:href="#DejaVuSans-Bold-6d" x="105.859375"/>
     <use xlink:href="#DejaVuSans-Bold-5f" x="210.058594"/>
     <use xlink:href="#DejaVuSans-Bold-73" x="260.058594"/>
     <use xlink:href="#DejaVuSans-Bold-74" x="319.580078"/>
     <use xlink:href="#DejaVuSans-Bold-61" x="367.382812"/>
     <use xlink:href="#DejaVuSans-Bold-74" x="434.863281"/>
     <use xlink:href="#DejaVuSans-Bold-75" x="482.666016"/>
     <use xlink:href="#DejaVuSans-Bold-73" x="553.857422"/>
    </g>
   </g>
   <g id="text_5">
    <!-- dim_geo -->
    <g style="fill: #333333" transform="translate(268.371406 238.574437) scale(0.1 -0.1)">
     <defs>
      <path id="DejaVuSans-Bold-67" d="M 2919 594 
Q 2688 288 2409 144 
Q 2131 0 1766 0 
Q 1125 0 706 504 
Q 288 1009 288 1791 
Q 288 2575 706 3076 
Q 1125 3578 1766 3578 
Q 2131 3578 2409 3434 
Q 2688 3291 2919 2981 
L 2919 3500 
L 4044 3500 
L 4044 353 
Q 4044 -491 3511 -936 
Q 2978 -1381 1966 -1381 
Q 1638 -1381 1331 -1331 
Q 1025 -1281 716 -1178 
L 716 -306 
Q 1009 -475 1290 -558 
Q 1572 -641 1856 -641 
Q 2406 -641 2662 -400 
Q 2919 -159 2919 353 
L 2919 594 
z
M 2181 2772 
Q 1834 2772 1640 2515 
Q 1447 2259 1447 1791 
Q 1447 1309 1634 1061 
Q 1822 813 2181 813 
Q 2531 813 2725 1069 
Q 2919 1325 2919 1791 
Q 2919 2259 2725 2515 
Q 2531 2772 2181 2772 
z
" transform="scale(0.015625)"/>
     </defs>
     <use xlink:href="#DejaVuSans-Bold-64"/>
     <use xlink:href="#DejaVuSans-Bold-69" x="71.582031"/>
     <use xlink:href="#DejaVuSans-Bold-6d" x="105.859375"/>
     <use xlink:href="#DejaVuSans-Bold-5f" x="210.058594"/>
     <use xlink:href="#DejaVuSans-Bold-67" x="260.058594"/>
     <use xlink:href="#DejaVuSans-Bold-65" x="331.640625"/>
     <use xlink:href="#DejaVuSans-Bold-6f" x="399.462891"/>
    </g>
   </g>
   <g id="text_6">
    <!-- dim_channel -->
    <g style="fill: #333333" transform="translate(424.055 57.134437) scale(0.1 -0.1)">
     <defs>
      <path id="DejaVuSans-Bold-68" d="M 4056 2131 
L 4056 0 
L 2931 0 
L 2931 347 
L 2931 1625 
Q 2931 2084 2911 2256 
Q 2891 2428 2841 2509 
Q 2775 2619 2662 2680 
Q 2550 2741 2406 2741 
Q 2056 2741 1856 2470 
Q 1656 2200 1656 1722 
L 1656 0 
L 538 0 
L 538 4863 
L 1656 4863 
L 1656 2988 
Q 1909 3294 2193 3439 
Q 2478 3584 2822 3584 
Q 3428 3584 3742 3212 
Q 4056 2841 4056 2131 
z
" transform="scale(0.015625)"/>
     </defs>
     <use xlink:href="#DejaVuSans-Bold-64"/>
     <use xlink:href="#DejaVuSans-Bold-69" x="71.582031"/>
     <use xlink:href="#DejaVuSans-Bold-6d" x="105.859375"/>
     <use xlink:href="#DejaVuSans-Bold-5f" x="210.058594"/>
     <use xlink:href="#DejaVuSans-Bold-63" x="260.058594"/>
     <use xlink:href="#DejaVuSans-Bold-68" x="319.335938"/>
     <use xlink:href="#DejaVuSans-Bold-61" x="390.527344"/>
     <use xlink:href="#DejaVuSans-Bold-6e" x="458.007812"/>
     <use xlink:href="#DejaVuSans-Bold-6e" x="529.199219"/>
     <use xlink:href="#DejaVuSans-Bold-65" x="600.390625"/>
     <use xlink:href="#DejaVuSans-Bold-6c" x="668.212891"/>
    </g>
   </g>
   <g id="text_7">
    <!-- fact_loan_snapshot -->
    <g style="fill: #333333" transform="translate(237.945625 147.854437) scale(0.1 -0.1)">
     <defs>
      <path id="DejaVuSans-Bold-66" d="M 2841 4863 
L 2841 4128 
L 2222 4128 
Q 1984 4128 1890 4042 
Q 1797 3956 1797 3744 
L 1797 3500 
L 2753 3500 
L 2753 2700 
L 1797 2700 
L 1797 0 
L 678 0 
L 678 2700 
L 122 2700 
L 122 3500 
L 678 3500 
L 678 3744 
Q 678 4316 997 4589 
Q 1316 4863 1984 4863 
L 2841 4863 
z
" transform="scale(0.015625)"/>
      <path id="DejaVuSans-Bold-70" d="M 1656 506 
L 1656 -1331 
L 538 -1331 
L 538 3500 
L 1656 3500 
L 1656 2988 
Q 1888 3294 2169 3439 
Q 2450 3584 2816 3584 
Q 3463 3584 3878 3070 
Q 4294 2556 4294 1747 
Q 4294 938 3878 423 
Q 3463 -91 2816 -91 
Q 2450 -91 2169 54 
Q 1888 200 1656 506 
z
M 2400 2772 
Q 2041 2772 1848 2508 
Q 1656 2244 1656 1747 
Q 1656 1250 1848 986 
Q 2041 722 2400 722 
Q 2759 722 2948 984 
Q 3138 1247 3138 1747 
Q 3138 2247 2948 2509 
Q 2759 2772 2400 2772 
z
" transform="scale(0.015625)"/>
     </defs>
     <use xlink:href="#DejaVuSans-Bold-66"/>
     <use xlink:href="#DejaVuSans-Bold-61" x="43.505859"/>
     <use xlink:href="#DejaVuSans-Bold-63" x="110.986328"/>
     <use xlink:href="#DejaVuSans-Bold-74" x="170.263672"/>
     <use xlink:href="#DejaVuSans-Bold-5f" x="218.066406"/>
     <use xlink:href="#DejaVuSans-Bold-6c" x="268.066406"/>
     <use xlink:href="#DejaVuSans-Bold-6f" x="302.34375"/>
     <use xlink:href="#DejaVuSans-Bold-61" x="371.044922"/>
     <use xlink:href="#DejaVuSans-Bold-6e" x="438.525391"/>
     <use xlink:href="#DejaVuSans-Bold-5f" x="509.716797"/>
     <use xlink:href="#DejaVuSans-Bold-73" x="559.716797"/>
     <use xlink:href="#DejaVuSans-Bold-6e" x="619.238281"/>
     <use xlink:href="#DejaVuSans-Bold-61" x="690.429688"/>
     <use xlink:href="#DejaVuSans-Bold-70" x="757.910156"/>
     <use xlink:href="#DejaVuSans-Bold-73" x="829.492188"/>
     <use xlink:href="#DejaVuSans-Bold-68" x="889.013672"/>
     <use xlink:href="#DejaVuSans-Bold-6f" x="960.205078"/>
     <use xlink:href="#DejaVuSans-Bold-74" x="1028.90625"/>
    </g>
   </g>
   <g id="text_8">
    <!-- fact_payment_txn -->
    <g style="fill: #333333" transform="translate(381.595625 147.854437) scale(0.1 -0.1)">
     <defs>
      <path id="DejaVuSans-Bold-79" d="M 78 3500 
L 1197 3500 
L 2138 1125 
L 2938 3500 
L 4056 3500 
L 2584 -331 
Q 2363 -916 2067 -1148 
Q 1772 -1381 1288 -1381 
L 641 -1381 
L 641 -647 
L 991 -647 
Q 1275 -647 1404 -556 
Q 1534 -466 1606 -231 
L 1638 -134 
L 78 3500 
z
" transform="scale(0.015625)"/>
      <path id="DejaVuSans-Bold-78" d="M 1422 1791 
L 159 3500 
L 1344 3500 
L 2059 2463 
L 2784 3500 
L 3969 3500 
L 2706 1797 
L 4031 0 
L 2847 0 
L 2059 1106 
L 1281 0 
L 97 0 
L 1422 1791 
z
" transform="scale(0.015625)"/>
     </defs>
     <use xlink:href="#DejaVuSans-Bold-66"/>
     <use xlink:href="#DejaVuSans-Bold-61" x="43.505859"/>
     <use xlink:href="#DejaVuSans-Bold-63" x="110.986328"/>
     <use xlink:href="#DejaVuSans-Bold-74" x="170.263672"/>
     <use xlink:href="#DejaVuSans-Bold-5f" x="218.066406"/>
     <use xlink:href="#DejaVuSans-Bold-70" x="268.066406"/>
     <use xlink:href="#DejaVuSans-Bold-61" x="339.648438"/>
     <use xlink:href="#DejaVuSans-Bold-79" x="404.003906"/>
     <use xlink:href="#DejaVuSans-Bold-6d" x="469.189453"/>
     <use xlink:href="#DejaVuSans-Bold-65" x="573.388672"/>
     <use xlink:href="#DejaVuSans-Bold-6e" x="641.210938"/>
     <use xlink:href="#DejaVuSans-Bold-74" x="712.402344"/>
     <use xlink:href="#DejaVuSans-Bold-5f" x="760.205078"/>
     <use xlink:href="#DejaVuSans-Bold-74" x="810.205078"/>
     <use xlink:href="#DejaVuSans-Bold-78" x="858.007812"/>
     <use xlink:href="#DejaVuSans-Bold-6e" x="922.509766"/>
    </g>
   </g>
   <g id="patch_10">
    <path d="M 126.139927 68.633767 
Q 208.081669 113.040904 289.040443 156.915337 
" style="fill: none; stroke: #000000; stroke-linecap: round"/>
    <path d="M 286.476603 153.251087 
L 289.040443 156.915337 
L 284.570739 156.767859 
" style="fill: none; stroke: #000000; stroke-linecap: round"/>
   </g>
   <g id="patch_11">
    <path d="M 291.78 69.681665 
Q 291.78 113.040423 291.78 155.281147 
" style="fill: none; stroke: #000000; stroke-linecap: round"/>
    <path d="M 293.78 151.281147 
L 291.78 155.281147 
L 289.78 151.281147 
" style="fill: none; stroke: #000000; stroke-linecap: round"/>
   </g>
   <g id="patch_12">
    <path d="M 126.139927 248.166233 
Q 208.081669 203.759096 289.040443 159.884663 
" style="fill: none; stroke: #000000; stroke-linecap: round"/>
    <path d="M 284.570739 160.032141 
L 289.040443 159.884663 
L 286.476603 163.548913 
" style="fill: none; stroke: #000000; stroke-linecap: round"/>
   </g>
   <g id="patch_13">
    <path d="M 457.420073 248.166233 
Q 375.478331 203.759096 294.519557 159.884663 
" style="fill: none; stroke: #000000; stroke-linecap: round"/>
    <path d="M 297.083397 163.548913 
L 294.519557 159.884663 
L 298.989261 160.032141 
" style="fill: none; stroke: #000000; stroke-linecap: round"/>
   </g>
   <g id="patch_14">
    <path d="M 291.78 247.118335 
Q 291.78 203.759577 291.78 161.518853 
" style="fill: none; stroke: #000000; stroke-linecap: round"/>
    <path d="M 289.78 165.518853 
L 291.78 161.518853 
L 293.78 165.518853 
" style="fill: none; stroke: #000000; stroke-linecap: round"/>
   </g>
   <g id="patch_15">
    <path d="M 293.455209 68.769426 
Q 361.529543 113.039703 428.666607 156.700452 
" style="fill: none; stroke: #000000; stroke-linecap: round"/>
    <path d="M 426.403684 152.843098 
L 428.666607 156.700452 
L 424.22297 156.196378 
" style="fill: none; stroke: #000000; stroke-linecap: round"/>
   </g>
   <g id="patch_16">
    <path d="M 126.295315 248.553831 
Q 277.826669 203.760985 428.285851 159.285074 
" style="fill: none; stroke: #000000; stroke-linecap: round"/>
    <path d="M 423.882983 158.501017 
L 428.285851 159.285074 
L 425.016884 162.336935 
" style="fill: none; stroke: #000000; stroke-linecap: round"/>
   </g>
   <g id="patch_17">
    <path d="M 293.455209 248.030574 
Q 361.529543 203.760297 428.666607 160.099548 
" style="fill: none; stroke: #000000; stroke-linecap: round"/>
    <path d="M 424.22297 160.603622 
L 428.666607 160.099548 
L 426.403684 163.956902 
" style="fill: none; stroke: #000000; stroke-linecap: round"/>
   </g>
   <g id="patch_18">
    <path d="M 458.591655 69.593071 
Q 445.229631 113.0412 432.196256 155.420689 
" style="fill: none; stroke: #000000; stroke-linecap: round"/>
    <path d="M 435.283707 152.185314 
L 432.196256 155.420689 
L 431.460427 151.009504 
" style="fill: none; stroke: #000000; stroke-linecap: round"/>
   </g>
  </g>
 </g>
 <defs>
  <clipPath id="pe213045a33">
   <rect x="7.2" y="7.2" width="558" height="332.64"/>
  </clipPath>
 </defs>
</svg>
